<svg width="24" height="20" viewBox="0 0 24 20" fill="none" xmlns="http://www.w3.org/2000/svg">
<path d="M1.63636 19.0028H5.45456V9.7301L2.95434 5.36426L0 5.63918V17.3665C0 18.2705 0.732281 19.0028 1.63636 19.0028Z" fill="#0085F7"/>
<path d="M18.5454 19.0028H22.3636C23.2677 19.0028 24 18.2705 24 17.3665V5.63918L21.0499 5.36426L18.5455 9.7301V19.0028H18.5454Z" fill="#00A94B"/>
<path d="M18.5453 2.63881L16.3025 6.91863L18.5453 9.72973L23.9999 5.6388V3.45701C23.9999 1.43473 21.6912 0.279727 20.0726 1.49337L18.5453 2.63881Z" fill="#FFBC00"/>
<path fill-rule="evenodd" clip-rule="evenodd" d="M5.45455 9.72959L3.31738 5.21506L5.45455 2.63867L12 7.54775L18.5454 2.63867V9.72959L12 14.6387L5.45455 9.72959Z" fill="#FF4131"/>
<path d="M0 3.45701V5.6388L5.45456 9.72973V2.63881L3.92728 1.49337C2.30864 0.279727 0 1.43473 0 3.45701Z" fill="#E51C19"/>
</svg>
