<svg width="20" height="18" viewBox="0 0 20 18" fill="none" xmlns="http://www.w3.org/2000/svg">
<path d="M9.99984 12.3333V16.5M9.99984 12.3333L14.9998 16.5M9.99984 12.3333L4.99984 16.5M17.4998 1.5V8.33333C17.4998 9.73346 17.4998 10.4335 17.2274 10.9683C16.9877 11.4387 16.6052 11.8212 16.1348 12.0608C15.6 12.3333 14.9 12.3333 13.4998 12.3333H6.49984C5.09971 12.3333 4.39964 12.3333 3.86486 12.0608C3.39446 11.8212 3.012 11.4387 2.77232 10.9683C2.49984 10.4335 2.49984 9.73346 2.49984 8.33333V1.5M6.6665 6.5V9M9.99984 4.83333V9M13.3332 8.16667V9M18.3332 1.5H1.6665" stroke="#EE5920" stroke-width="1.5" stroke-linecap="round" stroke-linejoin="round"/>
</svg>
