<svg width="20" height="20" viewBox="0 0 20 20" fill="none" xmlns="http://www.w3.org/2000/svg">
<path d="M17.2727 0H2.72727C1.22104 0 0 1.22104 0 2.72727V17.2727C0 18.779 1.22104 20 2.72727 20H17.2727C18.779 20 20 18.779 20 17.2727V2.72727C20 1.22104 18.779 0 17.2727 0Z" fill="#0077B5"/>
<path d="M7.20499 5.45455C7.20499 5.79167 7.10502 6.12123 6.91772 6.40154C6.73042 6.68185 6.46421 6.90033 6.15275 7.02934C5.84128 7.15835 5.49855 7.19211 5.1679 7.12634C4.83725 7.06057 4.53353 6.89823 4.29515 6.65984C4.05676 6.42146 3.89442 6.11774 3.82865 5.78709C3.76288 5.45644 3.79664 5.11371 3.92565 4.80224C4.05466 4.49078 4.27314 4.22457 4.55345 4.03727C4.83376 3.84997 5.16332 3.75 5.50044 3.75C5.95252 3.75 6.38608 3.92959 6.70574 4.24925C7.0254 4.56891 7.20499 5.00247 7.20499 5.45455Z" fill="white"/>
<path d="M6.81865 8.29529V15.826C6.81894 15.8815 6.80826 15.9366 6.78721 15.988C6.76616 16.0394 6.73515 16.0862 6.69597 16.1255C6.65679 16.1649 6.61022 16.1962 6.55892 16.2175C6.50762 16.2389 6.45261 16.2498 6.39705 16.2498H4.60046C4.54491 16.25 4.48987 16.2391 4.43852 16.218C4.38716 16.1968 4.3405 16.1656 4.30122 16.1264C4.26193 16.0871 4.2308 16.0404 4.20961 15.9891C4.18842 15.9377 4.17759 15.8827 4.17774 15.8271V8.29529C4.17774 8.18317 4.22227 8.07565 4.30155 7.99637C4.38083 7.9171 4.48835 7.87256 4.60046 7.87256H6.39705C6.50897 7.87286 6.6162 7.91753 6.69523 7.99677C6.77426 8.07602 6.81865 8.18337 6.81865 8.29529Z" fill="white"/>
<path d="M16.2099 12.2157V15.8612C16.2101 15.9123 16.2001 15.9629 16.1806 16.0101C16.1612 16.0573 16.1326 16.1002 16.0964 16.1363C16.0603 16.1725 16.0174 16.2011 15.9702 16.2206C15.923 16.24 15.8724 16.25 15.8213 16.2498H13.8895C13.8384 16.25 13.7878 16.24 13.7406 16.2206C13.6934 16.2011 13.6504 16.1725 13.6143 16.1363C13.5782 16.1002 13.5496 16.0573 13.5301 16.0101C13.5106 15.9629 13.5007 15.9123 13.5008 15.8612V12.3282C13.5008 11.801 13.6554 10.0191 12.1224 10.0191C10.9349 10.0191 10.6929 11.2385 10.6452 11.7862V15.8612C10.6452 15.9633 10.605 16.0613 10.5333 16.134C10.4617 16.2067 10.3643 16.2483 10.2622 16.2498H8.39629C8.34531 16.2498 8.29483 16.2398 8.24774 16.2202C8.20065 16.2007 8.15788 16.172 8.12188 16.1359C8.08589 16.0998 8.05737 16.057 8.03796 16.0098C8.01855 15.9627 8.00864 15.9122 8.00879 15.8612V8.26233C8.00864 8.21135 8.01855 8.16084 8.03796 8.11369C8.05737 8.06655 8.08589 8.0237 8.12188 7.98759C8.15788 7.95149 8.20065 7.92284 8.24774 7.9033C8.29483 7.88375 8.34531 7.87369 8.39629 7.8737H10.2622C10.3653 7.8737 10.4641 7.91464 10.537 7.98752C10.6099 8.06041 10.6508 8.15926 10.6508 8.26233V8.91915C11.0917 8.25779 11.7452 7.74756 13.1395 7.74756C16.2281 7.74756 16.2099 10.6316 16.2099 12.2157Z" fill="white"/>
</svg>
