<svg width="20" height="20" viewBox="0 0 20 20" fill="none" xmlns="http://www.w3.org/2000/svg">
<path d="M1.36363 17.5017H4.54547V9.77443L2.46195 6.13623L0 6.36533V16.1381C0 16.8915 0.610234 17.5017 1.36363 17.5017Z" fill="#0085F7"/>
<path d="M15.4541 17.5017H18.6359C19.3893 17.5017 19.9996 16.8915 19.9996 16.1381V6.36533L17.5412 6.13623L15.4541 9.77443V17.5017H15.4541Z" fill="#00A94B"/>
<path d="M15.455 3.86535L13.5859 7.43187L15.455 9.77445L20.0004 6.36535V4.54718C20.0004 2.86195 18.0766 1.89945 16.7277 2.91081L15.455 3.86535Z" fill="#FFBC00"/>
<path fill-rule="evenodd" clip-rule="evenodd" d="M4.54562 9.77434L2.76465 6.01223L4.54562 3.86523L10.0002 7.95613L15.4547 3.86523V9.77434L10.0002 13.8652L4.54562 9.77434Z" fill="#FF4131"/>
<path d="M0 4.54718V6.36535L4.54547 9.77445V3.86535L3.27273 2.91081C1.92387 1.89945 0 2.86195 0 4.54718Z" fill="#E51C19"/>
</svg>
