<svg width="18" height="14" viewBox="0 0 18 14" fill="none" xmlns="http://www.w3.org/2000/svg">
<path d="M1.01677 7.59464C0.90328 7.41494 0.846535 7.32509 0.81477 7.18651C0.79091 7.08241 0.79091 6.91824 0.81477 6.81415C0.846535 6.67556 0.90328 6.58571 1.01677 6.40601C1.95461 4.92103 4.74617 1.16699 9.00033 1.16699C13.2545 1.16699 16.0461 4.92103 16.9839 6.40601C17.0974 6.58571 17.1541 6.67556 17.1859 6.81415C17.2098 6.91824 17.2098 7.08241 17.1859 7.18651C17.1541 7.32509 17.0974 7.41494 16.9839 7.59464C16.0461 9.07963 13.2545 12.8337 9.00033 12.8337C4.74617 12.8337 1.95461 9.07963 1.01677 7.59464Z" stroke="#918E9B" stroke-width="1.5" stroke-linecap="round" stroke-linejoin="round"/>
<path d="M9.00033 9.50033C10.381 9.50033 11.5003 8.38104 11.5003 7.00033C11.5003 5.61961 10.381 4.50033 9.00033 4.50033C7.61962 4.50033 6.50034 5.61961 6.50034 7.00033C6.50034 8.38104 7.61962 9.50033 9.00033 9.50033Z" stroke="#918E9B" stroke-width="1.5" stroke-linecap="round" stroke-linejoin="round"/>
</svg>
